<?xml version="1.0" standalone="no"?>
<!DOCTYPE svg PUBLIC "-//W3C//DTD SVG 20010904//EN"
 "http://www.w3.org/TR/2001/REC-SVG-20010904/DTD/svg10.dtd">
<svg version="1.0" xmlns="http://www.w3.org/2000/svg"
 width="343.000000pt" height="206.000000pt" viewBox="0 0 343.000000 206.000000"
 preserveAspectRatio="xMidYMid meet">

<g transform="translate(0.000000,206.000000) scale(0.100000,-0.100000)"
fill="#000000" stroke="none">
<path d="M934 1495 c-11 -8 -42 -15 -74 -15 l-55 0 -45 -85 c-37 -71 -50 -87
-78 -96 -35 -12 -56 -4 -32 11 8 6 11 10 5 10 -5 0 -4 4 3 8 16 11 30 172 14
172 -6 0 -14 -4 -17 -10 -3 -5 -28 -10 -56 -10 l-49 0 0 -204 c0 -172 -2 -205
-15 -210 -8 -3 -15 -10 -15 -16 0 -6 32 -10 80 -10 l79 0 0 91 c0 50 1 93 4
95 2 2 26 -39 53 -91 l49 -95 93 0 c50 0 92 2 92 5 0 2 -24 42 -53 87 -30 46
-63 99 -75 118 l-21 36 70 108 c38 60 68 110 66 112 -2 2 -12 -3 -23 -11z
m-184 -305 c0 -5 -4 -10 -10 -10 -5 0 -10 5 -10 10 0 6 5 10 10 10 6 0 10 -4
10 -10z m20 -56 c0 -8 -5 -12 -10 -9 -6 4 -8 11 -5 16 9 14 15 11 15 -7z"/>
<path d="M1159 1495 c-8 -9 -36 -16 -63 -17 l-47 -2 3 -163 c2 -115 0 -162 -8
-159 -22 8 -1 -44 29 -74 40 -39 95 -53 183 -48 81 5 119 24 154 76 24 34 25
43 28 216 3 147 1 179 -9 169 -7 -7 -35 -13 -61 -13 l-48 0 0 -139 c0 -187
-14 -221 -90 -221 -26 0 -31 -3 -26 -17 6 -17 5 -17 -8 0 -11 14 -14 62 -15
210 -1 105 -3 192 -4 194 -2 1 -10 -4 -18 -12z"/>
<path d="M1865 1500 c-3 -5 -30 -10 -58 -10 -29 0 -57 -4 -64 -8 -8 -5 -13
-70 -15 -225 l-3 -217 82 0 82 0 3 93 3 92 49 -92 48 -93 101 0 c94 0 99 1 85
18 -24 28 -138 218 -138 230 0 6 30 57 66 112 36 56 63 104 61 107 -3 2 -14 0
-25 -6 -12 -6 -45 -11 -74 -11 -65 0 -69 -3 -98 -60 -33 -65 -60 -102 -73 -97
-8 2 -11 31 -9 84 3 75 -7 110 -23 83z"/>
<path d="M2806 1503 c-4 -5 -53 -10 -109 -13 l-101 -5 -23 -100 c-13 -55 -30
-106 -37 -113 -12 -12 -16 -6 -25 38 -6 29 -18 82 -26 119 l-15 66 -98 -3
c-157 -4 -140 24 -141 -232 l-2 -220 70 0 70 0 0 167 c1 91 2 168 4 170 4 3
32 -108 63 -254 l18 -83 67 0 67 0 22 98 c12 53 30 131 40 172 l17 75 7 -55
c4 -30 6 -108 4 -173 l-3 -117 73 0 72 0 0 235 c0 129 -1 235 -3 235 -2 0 -7
-3 -11 -7z"/>
<path d="M2870 1498 c0 -5 9 -8 19 -8 11 0 22 3 24 8 3 4 -6 7 -19 7 -13 0
-24 -3 -24 -7z"/>
<path d="M2888 1473 c6 -2 18 -2 25 0 6 3 1 5 -13 5 -14 0 -19 -2 -12 -5z"/>
<path d="M2885 1430 c-3 -5 -1 -10 4 -10 6 0 11 5 11 10 0 6 -2 10 -4 10 -3 0
-8 -4 -11 -10z"/>
<path d="M2888 1403 c6 -2 18 -2 25 0 6 3 1 5 -13 5 -14 0 -19 -2 -12 -5z"/>
<path d="M2880 1370 c0 -11 4 -20 10 -20 5 0 7 6 4 14 -3 8 2 16 13 19 14 4
14 5 -4 6 -17 1 -23 -5 -23 -19z"/>
<path d="M2888 1333 c6 -2 18 -2 25 0 6 3 1 5 -13 5 -14 0 -19 -2 -12 -5z"/>
<path d="M2890 1286 c7 -7 13 -7 20 0 6 6 3 10 -10 10 -13 0 -16 -4 -10 -10z"/>
<path d="M1646 1255 c-4 -11 -21 -15 -61 -15 -51 0 -55 -2 -55 -24 0 -13 -7
-26 -15 -30 -8 -3 -15 -10 -15 -16 0 -6 33 -10 85 -10 l85 0 0 49 c0 50 -13
74 -24 46z"/>
<path d="M2893 1263 c9 -2 25 -2 35 0 9 3 1 5 -18 5 -19 0 -27 -2 -17 -5z"/>
<path d="M2885 1231 c2 -36 35 -58 35 -23 0 9 -8 22 -18 29 -15 9 -18 8 -17
-6z"/>
<path d="M2912 1140 c0 -14 2 -19 5 -12 2 6 2 18 0 25 -3 6 -5 1 -5 -13z"/>
<path d="M2866 1080 c7 -7 19 -7 35 -1 23 9 22 10 -10 10 -24 1 -32 -2 -25 -9z"/>
<path d="M2900 1060 c0 -5 5 -10 10 -10 6 0 10 5 10 10 0 6 -4 10 -10 10 -5 0
-10 -4 -10 -10z"/>
<path d="M2865 1040 c-3 -5 1 -10 9 -10 9 0 16 5 16 10 0 6 -4 10 -9 10 -6 0
-13 -4 -16 -10z"/>
<path d="M506 983 c-4 -4 -6 -94 -6 -200 l1 -193 1107 0 c609 0 1131 -3 1160
-7 l52 -6 -2 204 -3 204 -1151 2 c-633 2 -1154 0 -1158 -4z m369 -67 c17 -12
18 -18 7 -40 -14 -31 -47 -36 -39 -6 6 25 -10 26 -43 3 -38 -26 -59 -54 -70
-94 -24 -87 31 -94 143 -18 42 28 78 57 81 64 3 8 19 21 36 30 38 20 62 6 60
-34 -5 -72 4 -77 53 -26 46 47 64 46 57 -4 -1 -9 11 -4 30 12 34 29 70 36 70
14 0 -7 -15 -20 -32 -28 -32 -14 -49 -36 -68 -92 -15 -41 -30 -23 -30 35 l0
50 -35 -31 c-29 -26 -39 -29 -55 -21 -11 6 -20 15 -20 21 0 6 -12 -3 -26 -20
-14 -17 -34 -31 -44 -31 -24 0 -42 24 -34 46 7 17 5 17 -17 -2 -69 -62 -152
-82 -191 -47 -20 18 -24 67 -7 110 14 37 66 92 104 109 38 17 47 17 70 0z
m683 2 c19 -19 14 -63 -8 -83 -26 -23 -25 -31 5 -66 23 -28 25 -29 35 -10 13
26 13 31 -5 31 -8 0 -15 7 -15 15 0 12 13 15 60 15 61 0 80 -14 35 -26 -25 -6
-60 -56 -48 -68 4 -3 19 -6 35 -6 19 0 28 -4 25 -12 -2 -8 -26 -14 -63 -15
-32 -1 -78 -5 -101 -8 -34 -6 -45 -3 -62 14 -29 29 -26 54 9 94 23 26 30 44
30 75 0 52 38 80 68 50z m406 -24 c0 -16 -3 -54 -6 -85 l-6 -57 35 39 c42 47
70 51 79 12 10 -49 13 -53 36 -53 14 0 41 20 72 54 58 61 90 76 104 49 5 -10
7 -32 5 -49 -7 -48 14 -51 56 -10 41 40 61 46 61 16 0 -11 2 -20 5 -20 3 0 15
9 27 20 24 22 68 27 68 8 0 -7 -15 -20 -33 -28 -29 -14 -56 -53 -72 -104 -10
-32 -35 1 -35 47 l0 40 -23 -21 c-28 -26 -62 -28 -75 -5 -8 14 -12 13 -26 -10
-10 -14 -24 -28 -33 -31 -23 -9 -53 3 -53 20 0 13 -3 13 -22 0 -47 -33 -70
-21 -92 48 -6 18 -7 18 -26 1 -11 -10 -33 -38 -48 -62 -29 -46 -48 -51 -45
-12 6 105 15 197 19 212 9 28 29 14 28 -19z m-100 20 c9 -3 16 -17 16 -30 0
-28 -6 -30 -26 -9 -28 28 -104 10 -104 -24 0 -14 13 -24 48 -37 63 -23 90 -49
76 -71 -28 -45 -122 -81 -158 -61 -28 16 -17 28 24 28 40 0 100 23 100 38 0 4
-28 21 -62 37 -70 33 -84 61 -51 97 30 34 94 49 137 32z m-494 -59 c15 -18 -6
-55 -45 -81 -24 -16 -24 -44 0 -44 7 0 29 11 49 25 43 29 46 30 46 11 0 -25
-59 -66 -95 -66 -40 0 -55 20 -55 75 0 27 8 44 29 66 33 32 52 36 71 14z
m1238 -16 c2 -20 -6 -34 -34 -57 -22 -18 -33 -35 -29 -42 10 -16 54 -4 82 22
27 25 39 19 24 -11 -14 -26 -61 -51 -95 -51 -35 0 -58 36 -50 80 13 73 95 120
102 59z"/>
<path d="M1004 832 c-19 -13 -54 -70 -54 -88 0 -16 2 -16 21 2 21 18 54 82 47
90 -2 1 -8 0 -14 -4z"/>
<path d="M1520 874 c0 -14 4 -23 10 -19 6 3 10 15 10 26 0 10 -4 19 -10 19 -5
0 -10 -12 -10 -26z"/>
<path d="M1479 767 c-14 -30 1 -57 30 -57 36 0 39 15 10 49 l-28 34 -12 -26z"/>
<path d="M2222 817 c-25 -27 -44 -74 -33 -81 10 -7 34 19 55 61 19 39 7 51
-22 20z"/>
<path d="M1320 825 c-7 -9 -11 -18 -8 -20 3 -3 11 1 18 10 7 9 11 18 8 20 -3
3 -11 -1 -18 -10z"/>
<path d="M2555 820 c-10 -11 -16 -22 -13 -25 3 -3 13 4 23 15 10 11 16 22 13
25 -3 3 -13 -4 -23 -15z"/>
<path d="M2885 980 c-3 -5 -1 -10 4 -10 6 0 11 5 11 10 0 6 -2 10 -4 10 -3 0
-8 -4 -11 -10z"/>
<path d="M2882 923 c5 -25 25 -27 38 -4 10 19 8 21 -15 21 -19 0 -26 -5 -23
-17z m28 -3 c0 -5 -4 -10 -10 -10 -5 0 -10 5 -10 10 0 6 5 10 10 10 6 0 10 -4
10 -10z"/>
<path d="M2873 883 c9 -2 25 -2 35 0 9 3 1 5 -18 5 -19 0 -27 -2 -17 -5z"/>
<path d="M2884 848 c0 -16 2 -16 18 -1 10 9 18 17 18 17 0 1 -8 2 -18 2 -10 0
-18 -8 -18 -18z"/>
<path d="M2898 813 c7 -3 16 -2 19 1 4 3 -2 6 -13 5 -11 0 -14 -3 -6 -6z"/>
<path d="M2873 793 c9 -2 25 -2 35 0 9 3 1 5 -18 5 -19 0 -27 -2 -17 -5z"/>
<path d="M2885 770 c11 -5 14 -9 6 -9 -11 -1 -11 -4 -1 -16 7 -8 18 -15 24
-15 6 0 4 5 -4 10 -12 8 -13 12 -2 19 11 6 10 10 -3 15 -25 9 -43 6 -20 -4z"/>
<path d="M2898 663 c7 -3 16 -2 19 1 4 3 -2 6 -13 5 -11 0 -14 -3 -6 -6z"/>
<path d="M2888 633 c6 -2 18 -2 25 0 6 3 1 5 -13 5 -14 0 -19 -2 -12 -5z"/>
<path d="M2860 610 c0 -5 5 -10 11 -10 5 0 7 5 4 10 -3 6 -8 10 -11 10 -2 0
-4 -4 -4 -10z"/>
<path d="M2885 599 l-30 -19 35 1 c19 0 29 3 22 6 -10 4 -10 8 -1 19 15 18 11
17 -26 -7z"/>
</g>
</svg>
